<svg width="634" height="633" viewBox="0 0 634 633" fill="none" xmlns="http://www.w3.org/2000/svg">
<g filter="url(#filter0_d_351_315)">
<mask id="path-1-inside-1_351_315" fill="white">
<path d="M342.747 500.2C389.292 493.658 431.601 469.646 461.083 433.039C490.565 396.433 505.007 349.977 501.478 303.108C497.948 256.238 476.711 212.47 442.08 180.691C407.448 148.913 362.019 131.508 315.02 132.011C268.021 132.514 222.975 150.887 189.032 183.4C155.088 215.912 134.793 260.125 132.267 307.059C129.742 353.994 145.175 400.129 175.434 436.097C205.692 472.064 248.506 495.165 295.18 500.709L310.342 373.053C296.101 371.362 283.038 364.313 273.805 353.339C264.573 342.365 259.864 328.288 260.634 313.967C261.405 299.646 267.597 286.156 277.954 276.236C288.311 266.316 302.055 260.709 316.396 260.556C330.736 260.402 344.598 265.713 355.164 275.409C365.731 285.106 372.211 298.46 373.288 312.761C374.365 327.062 369.958 341.237 360.963 352.406C351.967 363.575 339.058 370.902 324.856 372.898L342.747 500.2Z"/>
</mask>
<path d="M342.747 500.2C389.292 493.658 431.601 469.646 461.083 433.039C490.565 396.433 505.007 349.977 501.478 303.108C497.948 256.238 476.711 212.47 442.08 180.691C407.448 148.913 362.019 131.508 315.02 132.011C268.021 132.514 222.975 150.887 189.032 183.4C155.088 215.912 134.793 260.125 132.267 307.059C129.742 353.994 145.175 400.129 175.434 436.097C205.692 472.064 248.506 495.165 295.18 500.709L310.342 373.053C296.101 371.362 283.038 364.313 273.805 353.339C264.573 342.365 259.864 328.288 260.634 313.967C261.405 299.646 267.597 286.156 277.954 276.236C288.311 266.316 302.055 260.709 316.396 260.556C330.736 260.402 344.598 265.713 355.164 275.409C365.731 285.106 372.211 298.46 373.288 312.761C374.365 327.062 369.958 341.237 360.963 352.406C351.967 363.575 339.058 370.902 324.856 372.898L342.747 500.2Z" stroke="white" stroke-opacity="0.2" stroke-width="48" shape-rendering="crispEdges" mask="url(#path-1-inside-1_351_315)"/>
</g>
<defs>
<filter id="filter0_d_351_315" x="-0.000213623" y="0" width="634.001" height="632.709" filterUnits="userSpaceOnUse" color-interpolation-filters="sRGB">
<feFlood flood-opacity="0" result="BackgroundImageFix"/>
<feColorMatrix in="SourceAlpha" type="matrix" values="0 0 0 0 0 0 0 0 0 0 0 0 0 0 0 0 0 0 127 0" result="hardAlpha"/>
<feOffset/>
<feGaussianBlur stdDeviation="66"/>
<feComposite in2="hardAlpha" operator="out"/>
<feColorMatrix type="matrix" values="0 0 0 0 0.0156863 0 0 0 0 0.529412 0 0 0 0 0.435294 0 0 0 0.4 0"/>
<feBlend mode="normal" in2="BackgroundImageFix" result="effect1_dropShadow_351_315"/>
<feBlend mode="normal" in="SourceGraphic" in2="effect1_dropShadow_351_315" result="shape"/>
</filter>
</defs>
</svg>
