<svg width="564" height="541" viewBox="0 0 564 541" fill="none" xmlns="http://www.w3.org/2000/svg">
<g filter="url(#filter0_d_618_278)">
<path d="M332.69 296.468C335.158 293.141 334.462 288.444 331.135 285.976C327.808 283.509 323.111 284.205 320.643 287.532L332.69 296.468ZM322.628 297.445L328.652 301.913L322.628 297.445ZM324.718 318.817L329.762 313.267H329.762L324.718 318.817ZM325.949 319.935L320.905 325.486H320.905L325.949 319.935ZM346.55 320.71L341.937 314.797L341.937 314.797L346.55 320.71ZM356.613 322.373C359.879 319.825 360.461 315.112 357.914 311.846C355.366 308.58 350.653 307.998 347.387 310.546L356.613 322.373ZM404.5 310.5C404.5 349.712 372.712 381.5 333.5 381.5V396.5C380.996 396.5 419.5 357.996 419.5 310.5H404.5ZM333.5 381.5C294.288 381.5 262.5 349.712 262.5 310.5H247.5C247.5 357.996 286.004 396.5 333.5 396.5V381.5ZM262.5 310.5C262.5 271.288 294.288 239.5 333.5 239.5V224.5C286.004 224.5 247.5 263.004 247.5 310.5H262.5ZM333.5 239.5C372.712 239.5 404.5 271.288 404.5 310.5H419.5C419.5 263.004 380.996 224.5 333.5 224.5V239.5ZM318.107 314.194L271.841 359.795L282.371 370.478L328.636 324.877L318.107 314.194ZM320.643 287.532L316.604 292.976L328.652 301.913L332.69 296.468L320.643 287.532ZM319.674 324.368L320.905 325.486L330.993 314.385L329.762 313.267L319.674 324.368ZM351.163 326.624L356.613 322.373L347.387 310.546L341.937 314.797L351.163 326.624ZM320.905 325.486C329.37 333.179 342.144 333.659 351.163 326.624L341.937 314.797C338.675 317.341 334.055 317.168 330.993 314.385L320.905 325.486ZM316.604 292.976C309.411 302.675 310.738 316.247 319.674 324.368L329.762 313.267C326.53 310.33 326.05 305.421 328.652 301.913L316.604 292.976Z" fill="white" fill-opacity="0.2"/>
</g>
<g filter="url(#filter1_d_618_278)">
<path d="M256.968 152H153.287C152.634 152 152.157 152.615 152.318 153.247L166.263 207.944C166.367 208.351 166.72 208.651 167.138 208.693C187.34 210.726 198.687 212.14 209.449 222.761C209.637 222.947 209.744 223.204 209.744 223.468V250.184C209.744 250.567 209.519 250.92 209.175 251.088C193.925 258.554 188.041 264.901 180.987 278.347C180.912 278.49 180.872 278.651 180.872 278.812V292C180.872 292.552 181.32 293 181.872 293H316.459C317.012 293 317.459 292.552 317.459 292V278.979C317.459 278.715 317.352 278.459 317.166 278.271C301.918 262.918 292.588 255.122 270.538 250.965C270.063 250.875 269.709 250.46 269.709 249.976V223.896C269.709 223.41 270.067 222.993 270.546 222.909C302.48 217.295 319.686 211.693 342.76 184.481C342.913 184.3 343 184.067 343 183.831V170.764C343 170.211 342.552 169.764 342 169.764H270.235C269.906 169.764 269.598 169.602 269.411 169.33L257.792 152.433C257.606 152.162 257.297 152 256.968 152Z" stroke="white" stroke-opacity="0.2" stroke-width="15" stroke-linecap="round"/>
</g>
<defs>
<filter id="filter0_d_618_278" x="103.5" y="80.5" width="460" height="460" filterUnits="userSpaceOnUse" color-interpolation-filters="sRGB">
<feFlood flood-opacity="0" result="BackgroundImageFix"/>
<feColorMatrix in="SourceAlpha" type="matrix" values="0 0 0 0 0 0 0 0 0 0 0 0 0 0 0 0 0 0 127 0" result="hardAlpha"/>
<feOffset/>
<feGaussianBlur stdDeviation="72"/>
<feColorMatrix type="matrix" values="0 0 0 0 0.0156863 0 0 0 0 0.529412 0 0 0 0 0.435294 0 0 0 1 0"/>
<feBlend mode="normal" in2="BackgroundImageFix" result="effect1_dropShadow_618_278"/>
<feBlend mode="normal" in="SourceGraphic" in2="effect1_dropShadow_618_278" result="shape"/>
</filter>
<filter id="filter1_d_618_278" x="0.782623" y="0.5" width="493.717" height="444" filterUnits="userSpaceOnUse" color-interpolation-filters="sRGB">
<feFlood flood-opacity="0" result="BackgroundImageFix"/>
<feColorMatrix in="SourceAlpha" type="matrix" values="0 0 0 0 0 0 0 0 0 0 0 0 0 0 0 0 0 0 127 0" result="hardAlpha"/>
<feOffset/>
<feGaussianBlur stdDeviation="72"/>
<feColorMatrix type="matrix" values="0 0 0 0 1 0 0 0 0 0.439216 0 0 0 0 0.121569 0 0 0 0.6 0"/>
<feBlend mode="normal" in2="BackgroundImageFix" result="effect1_dropShadow_618_278"/>
<feBlend mode="normal" in="SourceGraphic" in2="effect1_dropShadow_618_278" result="shape"/>
</filter>
</defs>
</svg>
