<svg width="15" height="15" viewBox="0 0 15 15" fill="none" xmlns="http://www.w3.org/2000/svg">
<path d="M13.3792 11.6896C13.1588 12.2136 12.898 12.696 12.5958 13.1395C12.1839 13.7441 11.8466 14.1626 11.5867 14.395C11.1838 14.7765 10.7521 14.9719 10.2898 14.983C9.95797 14.983 9.55776 14.8858 9.09189 14.6885C8.62449 14.4922 8.19495 14.395 7.8022 14.395C7.39029 14.395 6.94852 14.4922 6.476 14.6885C6.00275 14.8858 5.62151 14.9885 5.33002 14.9987C4.88673 15.0182 4.44487 14.8172 4.00382 14.395C3.72232 14.1423 3.37022 13.7089 2.94842 13.0951C2.49586 12.4395 2.12379 11.6794 1.83231 10.8127C1.52014 9.87665 1.36365 8.97019 1.36365 8.09263C1.36365 7.08738 1.57464 6.22037 1.99725 5.49382C2.32939 4.91022 2.77124 4.44987 3.32426 4.11191C3.87728 3.77396 4.47482 3.60174 5.11831 3.59073C5.47042 3.59073 5.93215 3.70285 6.50594 3.92322C7.07812 4.14432 7.44551 4.25645 7.60659 4.25645C7.72701 4.25645 8.13514 4.12534 8.82702 3.86396C9.48131 3.62156 10.0335 3.52119 10.4859 3.56073C11.7117 3.66258 12.6327 4.16006 13.2452 5.05633C12.1488 5.7402 11.6065 6.69804 11.6173 7.9268C11.6272 8.8839 11.9645 9.68036 12.6273 10.3127C12.9277 10.6063 13.2631 10.8331 13.6364 10.9942C13.5554 11.2359 13.47 11.4673 13.3792 11.6896ZM10.5677 0.300085C10.5677 1.05026 10.3015 1.75069 9.77091 2.399C9.13056 3.16972 8.35603 3.61508 7.51611 3.5448C7.50541 3.4548 7.4992 3.36009 7.4992 3.26055C7.4992 2.54039 7.80373 1.76967 8.34452 1.1395C8.6145 0.82044 8.95788 0.555142 9.37429 0.34351C9.78979 0.135034 10.1828 0.0197432 10.5525 0C10.5632 0.100286 10.5677 0.200588 10.5677 0.300085Z" fill="white"/>
</svg>
